<svg width="130" height="130" viewBox="0 0 130 130" xmlns="http://www.w3.org/2000/svg">
  <!-- Isotipo (solo cámara/obturador) para usar en tamaños pequeños: favicon, sidebar colapsado -->
  <defs>
    <clipPath id="shutterClipMark">
      <circle cx="65" cy="65" r="34"/>
    </clipPath>
  </defs>
  <path d="M20 45 h20 l8 -12 h34 l8 12 h20 a8 8 0 0 1 8 8 v52 a8 8 0 0 1 -8 8 H20 a8 8 0 0 1 -8 -8 V53 a8 8 0 0 1 8 -8 Z"
        fill="none" stroke="#f2f2f5" stroke-width="7" stroke-linejoin="round"/>
  <g clip-path="url(#shutterClipMark)">
    <circle cx="65" cy="65" r="34" fill="#8b8b9a" opacity="0.3"/>
    <g fill="#f2f2f5">
      <path d="M65 65 L65 31 A34 34 0 0 1 94 48 Z"/>
      <path d="M65 65 L94 48 A34 34 0 0 1 94 82 Z"/>
      <path d="M65 65 L94 82 A34 34 0 0 1 65 99 Z"/>
      <path d="M65 65 L65 99 A34 34 0 0 1 36 82 Z"/>
      <path d="M65 65 L36 82 A34 34 0 0 1 36 48 Z"/>
      <path d="M65 65 L36 48 A34 34 0 0 1 65 31 Z"/>
    </g>
    <circle cx="65" cy="65" r="12" fill="#0b0b0d"/>
  </g>
  <circle cx="65" cy="65" r="34" fill="none" stroke="#f2f2f5" stroke-width="4"/>
  <g fill="#8b8b9a">
    <rect x="96" y="16" width="8" height="8"/>
    <rect x="110" y="16" width="8" height="8" opacity="0.7"/>
    <rect x="96" y="30" width="8" height="8" opacity="0.7"/>
  </g>
</svg>
